{"title":"Ninja Assasin ~ DVD Screener ~ 1CD ~ moviejockey.com","uid":5352645,"size":744029079,"categoryP":"video","categoryS":"movies","magnet":"?xt=urn:btih:b1ef99579401a73fd9ddd566d4d7f7b65161644f&amp;dn=Ninja+Assasin+%7E+DVD+Screener+%7E+1CD+%7E+moviejockey.com&amp;tr=udp%3A%2F%2Ftracker.openbittorrent.com%3A80&amp;tr=udp%3A%2F%2Fopen.demonii.com%3A1337&amp;tr=udp%3A%2F%2Ftracker.coppersurfer.tk%3A6969&amp;tr=udp%3A%2F%2Fexodus.desync.com%3A6969","seeders":1,"leechers":0,"uploader":"Team-MJY","files":2,"time":1265831182,"description":"General\n\nFormat : MPEG-4\nFormat profile : Base Media\nCodec ID : isom\nFile size : 700 MiB\nDuration : 1h 38mn\nOverall bit rate : 993 Kbps\n\n\nVideo\n\nID : 1\nFormat : AVC\nFormat/Info : Advanced Video Codec\nFormat profile : &lt;a class=&quot;__cf_email__&quot; href=&quot;/cdn-cgi/l/email-protection&quot; data-cfemail=&quot;3f775658577f730c110f&quot;&gt;[email&amp;#160;protected]&lt;/a&gt;&lt;script cf-hash='f9e31' type=&quot;text/javascript&quot;&gt;\n/* &lt;![CDATA[ */!function(){try{var t=&quot;currentScript&quot;in document?document.currentScript:function(){for(var t=document.getElementsByTagName(&quot;script&quot;),e=t.length;e--;)if(t[e].getAttribute(&quot;cf-hash&quot;))return t[e]}();if(t&amp;&amp;t.previousSibling){var e,r,n,i,c=t.previousSibling,a=c.getAttribute(&quot;data-cfemail&quot;);if(a){for(e=&quot;&quot;,r=parseInt(a.substr(0,2),16),n=2;a.length-n;n+=2)i=parseInt(a.substr(n,2),16)^r,e+=String.fromCharCode(i);e=document.createTextNode(e),c.parentNode.replaceChild(e,c)}}}catch(u){}}();/* ]]&gt; */&lt;/script&gt;\nFormat settings, CABAC : Yes\nFormat settings, ReFrames : 3 frames\nCodec ID : avc1\nCodec ID/Info : Advanced Video Coding\nDuration : 1h 38mn\nBit rate mode : Variable\nBit rate : 903 Kbps\nMaximum bit rate : 4 543 Kbps\nWidth : 688 pixels\nHeight : 352 pixels\nDisplay aspect ratio : 1.955\nFrame rate mode : Constant\nFrame rate : 23.976 fps\nResolution : 24 bits\nColorimetry : 4:2:0\nScan type : Progressive\nBits/(Pixel*Frame) : 0.156\nStream size : 637 MiB (91%)\nTitle : Video\nWriting library : x264 core 79 r1354 636f98f\n\n\nAudio\n\nID : 2\nFormat : AAC\nFormat/Info : Advanced Audio Codec\nFormat version : Version 4\nFormat profile : LC\nFormat settings, SBR : No\nCodec ID : 40\nDuration : 1h 38mn\nBit rate mode : Variable\nBit rate : 86.1 Kbps\nMaximum bit rate : 116 Kbps\nChannel(s) : 2 channels\nChannel positions : L R\nSampling rate : 48.0 KHz\nResolution : 16 bits\nStream size : 60.7 MiB (9%)\nTitle : English\nLanguage : English \n\nScreenshots\n\n","torrent":{"xt":"urn:btih:b1ef99579401a73fd9ddd566d4d7f7b65161644f","amp;dn":"Ninja+Assasin+%7E+DVD+Screener+%7E+1CD+%7E+moviejockey.com","amp;tr":["udp%3A%2F%2Ftracker.openbittorrent.com%3A80","udp%3A%2F%2Fopen.demonii.com%3A1337","udp%3A%2F%2Ftracker.coppersurfer.tk%3A6969","udp%3A%2F%2Fexodus.desync.com%3A6969"],"infoHash":"b1ef99579401a73fd9ddd566d4d7f7b65161644f","infoHashBuffer":{"type":"Buffer","data":[177,239,153,87,148,1,167,63,217,221,213,102,212,215,247,182,81,97,100,79]},"announce":[],"urlList":[]}}